<?xml version="1.0" encoding="UTF-8"?><svg id="c" xmlns="http://www.w3.org/2000/svg" viewBox="0 0 38 40"><defs><style>.e{stroke-width:0px;}</style></defs><g id="d"><path class="e" d="M19.75,32.79c-.42,0-.88,0-1.3-.05-3.52-.32-6.71-2.04-8.98-4.77-2.27-2.73-3.33-6.2-3.01-9.72.32-3.52,2.04-6.71,4.77-8.98,2.73-2.27,6.2-3.33,9.72-3.01,3.52.32,6.71,2.04,8.98,4.77,2.27,2.73,3.33,6.2,3.01,9.72-.32,3.52-2.04,6.71-4.77,8.98-2.41,1.99-5.37,3.05-8.42,3.05ZM19.71,7.34c-2.73,0-5.46.93-7.73,2.78-2.5,2.04-4.07,4.95-4.35,8.19-.32,3.24.65,6.39,2.73,8.89,2.08,2.5,4.95,4.07,8.19,4.35,3.24.32,6.39-.65,8.89-2.73,5.18-4.26,5.88-11.94,1.62-17.12-2.36-2.87-5.88-4.35-9.35-4.35Z"/><path class="e" d="M19.66,22.01c-1.39,0-2.5-1.11-2.5-2.5s1.11-2.5,2.5-2.5,2.5,1.11,2.5,2.5-1.11,2.5-2.5,2.5ZM19.66,18.12c-.74,0-1.34.6-1.34,1.34s.6,1.34,1.34,1.34,1.34-.6,1.34-1.34-.6-1.34-1.34-1.34Z"/><path class="e" d="M24.8,24.23h-10.27c-.65,0-1.16-.51-1.16-1.16v-7.17c0-.65.51-1.16,1.16-1.16h.69l.32-.74c.14-.37.51-.65.93-.65h2.22c.42,0,.79.23.93.65l.32.74h4.91c.65,0,1.16.51,1.16,1.16v7.13c-.05.65-.56,1.2-1.2,1.2ZM14.52,15.9h0v7.17h10.27v-7.17h-5.28c-.23,0-.46-.14-.56-.37l-.42-1.02h-1.99l-.42,1.02c-.09.23-.28.37-.56.37h-1.06Z"/></g></svg>